<svg
        xmlns="http://www.w3.org/2000/svg"
        xmlns:xlink="http://www.w3.org/1999/xlink"
        width="0.67cm" height="0.988cm">
    <path fill-rule="evenodd"  stroke="rgb(61, 61, 61)" stroke-width="1px" stroke-linecap="butt" stroke-linejoin="miter" fill="none"
          d="M2.684,0.497 L15.316,0.497 C16.246,0.497 17.000,1.247 17.000,2.173 L17.000,24.819 C17.000,25.745 16.246,26.496 15.316,26.496 L2.684,26.496 C1.754,26.496 1.000,25.745 1.000,24.819 C1.000,24.819 1.000,10.171 1.000,4.271 C1.000,2.967 1.000,2.173 1.000,2.173 C1.000,1.247 1.754,0.497 2.684,0.497 Z"/>
    <path fill-rule="evenodd"  stroke="rgb(61, 61, 61)" stroke-width="2px" stroke-linecap="butt" stroke-linejoin="miter" fill="none"
          d="M1.844,4.684 L16.156,4.684 L16.156,5.528 L1.844,5.528 L1.844,4.684 Z"/>
    <path fill-rule="evenodd"  stroke="rgb(61, 61, 61)" stroke-width="2px" stroke-linecap="butt" stroke-linejoin="miter" fill="none"
          d="M1.844,20.620 L16.156,20.620 L16.156,21.465 L1.844,21.465 L1.844,20.620 Z"/>
    <path fill-rule="evenodd"  fill="rgb(61, 61, 61)"
          d="M7.000,22.495 L11.000,22.495 L11.000,23.497 L7.000,23.497 L7.000,22.495 Z"/>
</svg>